<svg xmlns="http://www.w3.org/2000/svg" width="615" height="615" fill="none" viewBox="0 0 615 615"><g filter="url(#filter0_d)"><g clip-path="url(#clip0)"><rect width="399" height="399" x="108" y="40" fill="#BA3BFC" rx="56"/><rect width="6.078" height="35.452" fill="#fff" rx="3.039" transform="matrix(-1 0 0 1 505.41 224.774)"/><rect width="7.09" height="72.93" fill="#fff" rx="3.545" transform="matrix(-1 0 0 1 488.191 206.542)"/><rect width="7.09" height="35.452" fill="#fff" rx="3.545" transform="matrix(-1 0 0 1 470.971 224.774)"/><rect width="7.09" height="21.271" fill="#fff" rx="3.545" transform="matrix(-1 0 0 1 452.738 231.865)"/><rect width="6.078" height="15.194" fill="#fff" rx="3.039" transform="matrix(-1 0 0 1 434.506 234.903)"/><rect width="7.09" height="84.073" fill="#fff" rx="3.545" transform="matrix(-1 0 0 1 417.286 200.464)"/><rect width="7.09" height="35.452" fill="#fff" rx="3.545" transform="matrix(-1 0 0 1 400.066 224.774)"/><rect width="6.078" height="19.246" fill="#fff" rx="3.039" transform="matrix(-1 0 0 1 381.834 232.877)"/><rect width="7.09" height="25.323" fill="#fff" rx="3.545" transform="matrix(-1 0 0 1 364.614 229.839)"/><rect width="7.09" height="29.375" fill="#fff" rx="3.545" transform="matrix(-1 0 0 1 346.381 227.813)"/><rect width="7.09" height="35.452" fill="#fff" rx="3.545" transform="matrix(-1 0 0 1 329.162 224.774)"/><rect width="7.09" height="25.323" fill="#fff" rx="3.545" transform="matrix(-1 0 0 1 310.929 229.839)"/><rect width="7.09" height="35.452" fill="#fff" rx="3.545" transform="matrix(-1 0 0 1 293.709 224.774)"/><rect width="7.09" height="29.375" fill="#fff" rx="3.545" transform="matrix(-1 0 0 1 275.477 227.813)"/><rect width="6.078" height="29.375" fill="#fff" rx="3.039" transform="matrix(-1 0 0 1 257.244 227.813)"/><rect width="7.09" height="35.452" fill="#fff" rx="3.545" transform="matrix(-1 0 0 1 240.024 224.774)"/><rect width="7.09" height="27.349" fill="#fff" rx="3.545" transform="matrix(-1 0 0 1 222.805 228.826)"/><rect width="6.078" height="21.271" fill="#fff" rx="3.039" transform="matrix(-1 0 0 1 204.572 231.865)"/><rect width="7.09" height="19.246" fill="#fff" rx="3.545" transform="matrix(-1 0 0 1 187.352 232.877)"/><rect width="7.09" height="50.646" fill="#fff" rx="3.545" transform="matrix(-1 0 0 1 169.12 217.684)"/><rect width="7.09" height="35.452" fill="#fff" rx="3.545" transform="matrix(-1 0 0 1 151.9 224.774)"/><rect width="6.078" height="21.271" fill="#fff" rx="3.039" transform="matrix(-1 0 0 1 133.667 231.865)"/><rect width="7.09" height="35.452" fill="#fff" rx="3.545" transform="matrix(-1 0 0 1 116.448 224.774)"/><g clip-path="url(#clip1)"><path fill="#fff" stroke="#fff" d="M265.348 110.667L265.675 109.958H264.894H263.447V108.5H268.895L275.791 123.964L275.923 124.261H276.248H277.478V125.772H271.557V124.261H273.274H274.129L273.71 123.516C273.588 123.299 273.488 123.078 273.388 122.847C273.372 122.811 273.356 122.773 273.34 122.735C273.261 122.554 273.179 122.361 273.087 122.178C272.963 121.815 272.805 121.47 272.674 121.181C272.626 121.076 272.581 120.979 272.543 120.89L272.413 120.589H272.085H262.893H262.565L262.435 120.89C262.397 120.976 262.361 121.062 262.325 121.147C262.194 121.458 262.061 121.773 261.863 122.127L261.852 122.146L261.842 122.167L261.194 123.609L260.877 124.314H261.65H263.312V125.825H257.5V124.314H258.73H259.05L259.184 124.024L265.348 110.667ZM270.949 119.078H271.691L271.413 118.391C271.32 118.163 271.218 117.934 271.119 117.711C271.097 117.663 271.076 117.615 271.055 117.567C270.934 117.295 270.818 117.027 270.715 116.75C270.559 116.324 270.372 115.892 270.184 115.456C270.105 115.275 270.027 115.093 269.95 114.911C269.875 114.734 269.799 114.549 269.72 114.358C269.524 113.882 269.315 113.373 269.08 112.87C268.757 112.124 268.434 111.381 268.059 110.479L267.627 109.444L267.146 110.456C266.944 110.881 266.774 111.261 266.614 111.619C266.413 112.069 266.228 112.483 266.015 112.903L266.009 112.916L266.003 112.93C265.866 113.247 265.723 113.565 265.584 113.876C265.406 114.274 265.232 114.661 265.082 115.018C264.815 115.65 264.55 116.227 264.285 116.75C264.108 117.1 263.942 117.499 263.794 117.853C263.715 118.045 263.64 118.223 263.573 118.373L263.255 119.078H264.029H270.949Z"/><path fill="#fff" stroke="#fff" d="M288.1 115.49L288.071 115.161L287.758 115.058L287.755 115.057C287.593 115.004 287.416 114.945 287.181 114.887C286.971 114.835 286.676 114.774 286.409 114.767C286.111 114.712 285.865 114.712 285.615 114.712L285.601 114.712H285.6H285.599H285.597H285.596H285.595H285.593H285.592H285.591H285.59H285.588H285.587H285.586H285.585H285.583H285.582H285.581H285.58H285.578H285.577H285.576H285.574H285.573H285.572H285.571H285.569H285.568H285.567H285.566H285.564H285.563H285.562H285.561H285.559H285.558H285.557H285.555H285.554H285.553H285.552H285.55H285.549H285.548H285.547H285.545H285.544H285.543H285.542H285.54H285.539H285.538H285.536H285.535H285.534H285.533H285.531H285.53H285.529H285.528H285.526H285.525H285.524H285.523H285.521H285.52H285.519H285.518H285.516H285.515H285.514H285.513H285.511H285.51H285.509H285.507H285.506H285.505H285.504H285.502H285.501H285.5H285.499H285.497H285.496H285.495H285.494H285.492H285.491H285.49H285.489H285.487H285.486H285.485H285.484H285.482H285.481H285.48H285.479H285.477H285.476H285.475H285.473H285.472H285.471H285.47H285.468H285.467H285.466H285.465H285.463H285.462H285.461H285.46H285.458H285.457H285.456H285.455H285.453H285.452H285.451H285.45H285.448H285.447H285.446H285.445H285.443H285.442H285.441H285.44H285.438H285.437H285.436H285.435H285.433H285.432H285.431H285.43H285.429H285.427H285.426H285.425H285.424H285.422H285.421H285.42H285.419H285.417H285.416H285.415H285.414H285.412H285.411H285.41H285.409H285.407H285.406H285.405H285.404H285.402H285.401H285.4H285.399H285.397H285.396H285.395H285.394H285.393H285.391H285.39H285.389H285.388H285.386H285.385H285.384H285.383H285.381H285.38H285.379H285.378H285.377H285.375H285.374H285.373H285.372H285.37H285.369H285.368H285.367H285.366H285.364H285.363H285.362H285.361H285.359H285.358H285.357H285.356H285.355H285.353H285.352H285.351H285.35H285.348H285.347H285.346H285.345H285.344H285.342H285.341H285.34H285.339H285.337H285.336H285.335H285.334H285.333H285.331H285.33H285.329H285.328H285.327H285.325H285.324H285.323H285.322H285.321H285.319H285.318H285.317H285.316H285.315H285.313H285.312H285.311H285.31H285.309H285.307H285.306H285.305H285.304H285.303H285.301H285.3H285.299H285.298H285.297H285.295H285.294H285.293H285.292H285.291H285.289H285.288H285.287H285.286H285.285H285.283H285.282H285.281H285.28H285.279H285.277H285.276H285.275H285.274H285.273H285.272H285.27H285.269H285.268H285.267H285.266H285.265H285.263H285.262H285.261H285.26H285.259H285.257H285.256H285.255H285.254H285.253H285.252H285.25H285.249H285.248H285.247H285.246H285.245H285.243H285.242H285.241H285.24H285.239H285.238H285.236H285.235H285.234H285.233H285.232H285.231H285.229H285.228H285.227H285.226H285.225H285.224H285.223H285.221H285.22H285.219H285.218H285.217H285.216H285.214H285.213H285.212H285.211H285.21H285.209H285.208H285.206H285.205H285.204H285.203H285.202H285.201H285.2H285.199H285.197H285.196H285.195H285.194H285.193H285.192H285.191H285.189H285.188H285.187H285.186H285.185H285.184H285.183H285.182H285.18H285.179H285.178H285.177H285.176H285.175H285.174H285.173H285.171H285.17H285.169H285.168H285.167H285.166H285.165H285.164H285.163H285.161H285.16H285.159H285.158H285.157H285.156H285.155H285.154H285.153H285.152H285.15H285.149H285.148H285.147H285.146H285.145H285.144H285.143H285.142H285.141H285.139H285.138H285.137H285.136H285.135H285.134H285.133H285.132H285.131H285.13H285.129H285.128H285.126H285.125H285.124H285.123H285.122H285.121H285.12H285.119H285.118H285.117H285.116H285.115H285.114H285.112H285.111H285.11H285.109H285.108H285.107H285.106H285.105H285.104H285.103H285.102H285.101H285.1H285.099H285.098H285.097H285.096H285.094H285.093H285.092H285.091H285.09H285.089H285.088H285.087H285.086H285.085H285.084H285.083H285.082H285.081H285.08H285.079H285.078H285.077H285.076H285.075H285.074H285.073H285.072H285.071H285.07H285.069H285.068H285.067H285.066H285.064H285.063H285.062H285.061H285.06H285.059H285.058H285.057H285.056H285.055H285.054H285.053H285.052H285.051H285.05H285.049H285.048H285.047H285.046H285.045H285.044H285.043H285.042H285.041H285.04H285.039H285.038H285.037H285.036H285.035H285.034H285.033H285.032H285.031H285.03H285.029H285.029H285.028H285.027H285.026H285.025H285.024H285.023H285.022H285.021H285.02H285.019H285.018H285.017H285.016H285.015H285.014H285.013H285.012H285.011H285.01H285.009H285.008H285.007H285.006C284.992 114.712 284.978 114.712 284.964 114.712C284.579 114.712 284.148 114.712 283.758 114.831C283.302 114.904 282.971 115.1 282.714 115.253C282.708 115.256 282.703 115.26 282.697 115.263C282.383 115.449 282.098 115.711 281.932 116.015C281.697 116.346 281.641 116.726 281.641 117.082C281.641 117.468 281.792 117.868 282.06 118.133C282.259 118.33 282.512 118.514 282.805 118.688L282.839 118.708L282.876 118.723C283.164 118.837 283.525 118.957 283.898 119.018C284.228 119.073 284.611 119.127 284.987 119.18L284.991 119.18L285.003 119.182L285.016 119.183C285.501 119.227 286.023 119.307 286.603 119.396C286.71 119.413 286.82 119.43 286.932 119.447C287.575 119.544 288.121 119.74 288.624 119.988C289.085 120.216 289.516 120.59 289.858 121.025C290.136 121.378 290.291 121.939 290.291 122.746C290.291 123.303 290.151 123.789 289.89 124.176C289.589 124.622 289.255 124.993 288.84 125.266C288.404 125.554 287.865 125.798 287.22 125.944C286.543 126.099 285.878 126.199 285.114 126.199C284.063 126.199 283.144 126.095 282.342 125.847C281.588 125.614 280.793 125.298 279.996 124.861L280.038 122.23H281.399L281.479 123.629L281.495 123.906L281.738 124.039C282.286 124.339 282.881 124.513 283.45 124.625C284.022 124.738 284.595 124.795 285.169 124.795H285.181C285.445 124.795 285.804 124.795 286.169 124.735L286.184 124.732C286.499 124.68 286.856 124.622 287.217 124.503C287.634 124.365 287.925 124.15 288.19 123.828C288.507 123.501 288.633 123.059 288.691 122.657L288.696 122.621V122.585C288.696 122.212 288.609 121.853 288.39 121.538C288.173 121.226 287.856 121.001 287.467 120.841C286.761 120.55 285.956 120.383 284.966 120.273L284.006 120.115L283.053 119.958C282.457 119.809 281.959 119.613 281.453 119.364C281.027 119.128 280.669 118.81 280.455 118.471L280.443 118.453L280.431 118.436C280.206 118.141 280.1 117.689 280.1 117.029C280.1 116.405 280.246 115.869 280.501 115.492L280.507 115.482L280.514 115.472C280.795 115.008 281.168 114.639 281.639 114.36C282.148 114.058 282.683 113.822 283.249 113.729L283.269 113.726L283.288 113.721C283.89 113.572 284.444 113.522 285.006 113.522C285.827 113.522 286.657 113.623 287.499 113.779C288.269 113.958 288.942 114.172 289.529 114.45L289.489 116.903H288.222L288.1 115.49Z"/><path fill="#fff" stroke="#fff" d="M297.451 119.164L299.764 117.092L301.318 115.873L302.399 115.027L301.027 114.98L299.942 114.943V113.843H305.538V114.98H304.416H304.24L304.103 115.09L300.048 118.349L299.673 118.651L299.96 119.037L303.853 124.273L304.003 124.474H304.254H305.917V125.772H302.213V124.829V124.667L302.117 124.535L298.819 119.994L298.507 119.564L298.097 119.902L296.799 120.971L296.617 121.121V121.357V123.974V124.474H297.117H298.347V125.772H293.022V124.474H294.576H295.076V123.974V110.297V109.797H294.576H293.076V108.5H296.617V118.792V119.912L297.451 119.164Z"/><path fill="#fff" stroke="#fff" d="M265.867 148.798H257.554V147.234H259.271H259.771V146.734V133.431V132.931H259.271H257.608V131.473H265.813C267.341 131.473 268.674 131.682 269.727 132.128L269.727 132.128L269.734 132.131C270.858 132.586 271.722 133.188 272.49 133.947C273.234 134.682 273.738 135.571 274.098 136.636C274.456 137.699 274.612 138.765 274.612 140.002C274.612 141.239 274.456 142.306 274.098 143.368C273.736 144.441 273.225 145.393 272.521 146.189C271.817 146.984 270.908 147.635 269.839 148.088C268.716 148.542 267.43 148.798 265.867 148.798ZM268.996 146.6L269.008 146.595L269.02 146.589C269.871 146.14 270.58 145.62 271.175 144.858C271.759 144.164 272.167 143.357 272.401 142.498C272.689 141.639 272.801 140.734 272.801 139.895C272.801 139.048 272.686 138.192 272.396 137.331L272.396 137.331L272.393 137.321C272.104 136.524 271.698 135.776 271.115 135.085L271.108 135.077L271.101 135.069C270.506 134.423 269.745 133.906 268.888 133.511C267.99 133.097 266.939 132.931 265.813 132.931H262.082H261.582V133.431V146.734V147.234H262.082H265.813C267.063 147.234 268.11 147.009 268.996 146.6Z"/><path fill="#fff" stroke="#fff" d="M279.589 143.852C279.65 144.395 279.831 144.937 280.079 145.37C280.341 145.882 280.726 146.252 281.115 146.582C281.556 146.956 282.053 147.197 282.64 147.372C283.173 147.547 283.818 147.662 284.466 147.662C284.832 147.662 285.243 147.603 285.569 147.549C285.913 147.5 286.225 147.409 286.52 147.324C286.584 147.305 286.647 147.287 286.71 147.269L286.72 147.266L286.731 147.263C287.089 147.145 287.44 146.971 287.754 146.816L287.769 146.809C287.984 146.702 288.161 146.576 288.311 146.45L289.312 147.346C289.106 147.531 288.874 147.697 288.604 147.845L288.593 147.852L288.582 147.858C288.161 148.119 287.713 148.361 287.283 148.503C286.806 148.66 286.285 148.814 285.823 148.916C285.311 149.017 284.858 149.066 284.412 149.066C283.383 149.066 282.523 148.914 281.72 148.616C280.918 148.319 280.222 147.875 279.681 147.34C279.131 146.797 278.687 146.162 278.391 145.382C278.09 144.588 277.937 143.74 277.937 142.781C277.937 141.874 278.09 141.031 278.387 140.297C278.688 139.554 279.138 138.864 279.681 138.328C280.222 137.793 280.919 137.348 281.671 137.05C282.494 136.746 283.352 136.549 284.249 136.549C285.226 136.549 286.139 136.702 286.941 136.999C287.731 137.292 288.368 137.728 288.911 138.312C289.445 138.888 289.842 139.616 290.094 140.512C290.312 141.289 290.382 142.2 290.324 143.296H280.086H279.527L279.589 143.852ZM288.304 142.159H288.857L288.802 141.608C288.686 140.46 288.27 139.456 287.427 138.81C286.609 138.131 285.566 137.846 284.358 137.846C283.834 137.846 283.292 137.904 282.741 138.085C282.197 138.265 281.774 138.505 281.366 138.793C280.92 139.108 280.553 139.537 280.258 140.002C279.964 140.468 279.721 141.002 279.598 141.549L279.461 142.159H280.086H288.304Z"/><path fill="#fff" stroke="#fff" d="M301.724 138.463L301.696 138.135L301.383 138.031L301.379 138.03C301.217 137.977 301.04 137.919 300.806 137.861C300.596 137.809 300.301 137.747 300.033 137.74C299.736 137.686 299.49 137.686 299.24 137.686L299.226 137.686H299.225H299.223H299.222H299.221H299.219H299.218H299.217H299.216H299.214H299.213H299.212H299.211H299.209H299.208H299.207H299.206H299.204H299.203H299.202H299.2H299.199H299.198H299.197H299.195H299.194H299.193H299.192H299.19H299.189H299.188H299.187H299.185H299.184H299.183H299.181H299.18H299.179H299.178H299.176H299.175H299.174H299.173H299.171H299.17H299.169H299.168H299.166H299.165H299.164H299.163H299.161H299.16H299.159H299.157H299.156H299.155H299.154H299.152H299.151H299.15H299.149H299.147H299.146H299.145H299.144H299.142H299.141H299.14H299.139H299.137H299.136H299.135H299.133H299.132H299.131H299.13H299.128H299.127H299.126H299.125H299.123H299.122H299.121H299.12H299.118H299.117H299.116H299.115H299.113H299.112H299.111H299.11H299.108H299.107H299.106H299.105H299.103H299.102H299.101H299.1H299.098H299.097H299.096H299.094H299.093H299.092H299.091H299.089H299.088H299.087H299.086H299.084H299.083H299.082H299.081H299.079H299.078H299.077H299.076H299.074H299.073H299.072H299.071H299.069H299.068H299.067H299.066H299.064H299.063H299.062H299.061H299.059H299.058H299.057H299.056H299.055H299.053H299.052H299.051H299.05H299.048H299.047H299.046H299.045H299.043H299.042H299.041H299.04H299.038H299.037H299.036H299.035H299.033H299.032H299.031H299.03H299.028H299.027H299.026H299.025H299.023H299.022H299.021H299.02H299.019H299.017H299.016H299.015H299.014H299.012H299.011H299.01H299.009H299.007H299.006H299.005H299.004H299.003H299.001H299H298.999H298.998H298.996H298.995H298.994H298.993H298.991H298.99H298.989H298.988H298.987H298.985H298.984H298.983H298.982H298.98H298.979H298.978H298.977H298.976H298.974H298.973H298.972H298.971H298.97H298.968H298.967H298.966H298.965H298.963H298.962H298.961H298.96H298.959H298.957H298.956H298.955H298.954H298.953H298.951H298.95H298.949H298.948H298.947H298.945H298.944H298.943H298.942H298.94H298.939H298.938H298.937H298.936H298.934H298.933H298.932H298.931H298.93H298.928H298.927H298.926H298.925H298.924H298.922H298.921H298.92H298.919H298.918H298.917H298.915H298.914H298.913H298.912H298.911H298.909H298.908H298.907H298.906H298.905H298.903H298.902H298.901H298.9H298.899H298.898H298.896H298.895H298.894H298.893H298.892H298.89H298.889H298.888H298.887H298.886H298.885H298.883H298.882H298.881H298.88H298.879H298.878H298.876H298.875H298.874H298.873H298.872H298.87H298.869H298.868H298.867H298.866H298.865H298.864H298.862H298.861H298.86H298.859H298.858H298.857H298.855H298.854H298.853H298.852H298.851H298.85H298.848H298.847H298.846H298.845H298.844H298.843H298.842H298.84H298.839H298.838H298.837H298.836H298.835H298.834H298.832H298.831H298.83H298.829H298.828H298.827H298.826H298.824H298.823H298.822H298.821H298.82H298.819H298.818H298.816H298.815H298.814H298.813H298.812H298.811H298.81H298.809H298.807H298.806H298.805H298.804H298.803H298.802H298.801H298.8H298.798H298.797H298.796H298.795H298.794H298.793H298.792H298.791H298.79H298.788H298.787H298.786H298.785H298.784H298.783H298.782H298.781H298.78H298.778H298.777H298.776H298.775H298.774H298.773H298.772H298.771H298.77H298.769H298.767H298.766H298.765H298.764H298.763H298.762H298.761H298.76H298.759H298.758H298.757H298.756H298.754H298.753H298.752H298.751H298.75H298.749H298.748H298.747H298.746H298.745H298.744H298.743H298.742H298.74H298.739H298.738H298.737H298.736H298.735H298.734H298.733H298.732H298.731H298.73H298.729H298.728H298.727H298.726H298.725H298.723H298.722H298.721H298.72H298.719H298.718H298.717H298.716H298.715H298.714H298.713H298.712H298.711H298.71H298.709H298.708H298.707H298.706H298.705H298.704H298.703H298.702H298.701H298.699H298.698H298.697H298.696H298.695H298.694H298.693H298.692H298.691H298.69H298.689H298.688H298.687H298.686H298.685H298.684H298.683H298.682H298.681H298.68H298.679H298.678H298.677H298.676H298.675H298.674H298.673H298.672H298.671H298.67H298.669H298.668H298.667H298.666H298.665H298.664H298.663H298.662H298.661H298.66H298.659H298.658H298.657H298.656H298.655H298.654H298.653H298.652H298.651H298.65H298.649H298.648H298.647H298.646H298.645H298.645H298.644H298.643H298.642H298.641H298.64H298.639H298.638H298.637H298.636H298.635H298.634H298.633H298.632H298.631C298.617 137.686 298.603 137.686 298.589 137.686C298.204 137.686 297.773 137.685 297.382 137.804C296.927 137.878 296.596 138.074 296.339 138.226C296.333 138.23 296.327 138.233 296.322 138.237C296.008 138.422 295.723 138.684 295.557 138.989C295.322 139.319 295.266 139.699 295.266 140.056C295.266 140.441 295.417 140.841 295.684 141.106C295.884 141.303 296.136 141.487 296.43 141.661L296.464 141.682L296.501 141.696C296.789 141.81 297.15 141.93 297.523 141.992C297.853 142.046 298.236 142.1 298.611 142.153L298.615 142.154L298.628 142.155L298.64 142.157C299.125 142.2 299.648 142.28 300.227 142.37C300.335 142.386 300.445 142.403 300.556 142.42C301.2 142.518 301.745 142.713 302.248 142.962C302.71 143.19 303.141 143.564 303.483 143.998C303.761 144.351 303.916 144.913 303.916 145.719C303.916 146.276 303.776 146.763 303.515 147.149C303.214 147.595 302.879 147.967 302.465 148.24C302.029 148.527 301.489 148.771 300.845 148.918C300.168 149.072 299.503 149.172 298.739 149.172C297.688 149.172 296.769 149.068 295.967 148.821C295.212 148.588 294.418 148.271 293.621 147.834L293.663 145.204H294.915L294.996 146.603L295.012 146.879L295.255 147.012C295.802 147.313 296.397 147.486 296.966 147.599C297.538 147.712 298.111 147.768 298.685 147.768H298.698C298.962 147.768 299.321 147.768 299.686 147.708L299.7 147.706C300.016 147.654 300.372 147.595 300.734 147.476C301.151 147.339 301.441 147.124 301.707 146.802C302.024 146.475 302.15 146.032 302.208 145.63L302.213 145.595V145.559C302.213 145.186 302.126 144.826 301.907 144.512C301.69 144.2 301.372 143.974 300.984 143.814C300.277 143.523 299.473 143.356 298.483 143.247L296.569 142.932C295.974 142.783 295.475 142.586 294.97 142.337C294.544 142.102 294.185 141.783 293.971 141.445L293.96 141.427L293.947 141.41C293.723 141.114 293.616 140.662 293.616 140.002C293.616 139.379 293.763 138.843 294.017 138.465L294.024 138.456L294.03 138.445C294.312 137.982 294.685 137.613 295.156 137.334C295.665 137.032 296.2 136.796 296.766 136.702L296.785 136.699L296.805 136.694C297.407 136.546 297.96 136.495 298.523 136.495C299.344 136.495 300.173 136.596 301.016 136.752C301.79 136.933 302.467 137.148 303.056 137.428L303.097 139.876H301.847L301.724 138.463Z"/><path fill="#fff" stroke="#fff" d="M308.417 138.06H306.917V136.816H310.512V146.948V147.448H311.012H312.459V148.745H306.863V147.448H308.417H308.917V146.948V138.56V138.06H308.417ZM310.586 133.365L310.569 133.38L310.553 133.396C310.346 133.6 310.108 133.679 309.769 133.679C309.47 133.679 309.201 133.571 308.951 133.365C308.778 133.223 308.647 132.961 308.647 132.522C308.647 132.103 308.766 131.885 308.951 131.733C309.201 131.528 309.47 131.42 309.769 131.42C310.068 131.42 310.337 131.528 310.586 131.733C310.76 131.876 310.891 132.138 310.891 132.576C310.891 132.951 310.765 133.218 310.586 133.365Z"/><path fill="#fff" stroke="#fff" d="M326.876 135.782L327.918 136.6L326.745 137.967L326.455 138.304L326.756 138.631C327.27 139.19 327.658 139.776 327.844 140.282C328.042 140.818 328.192 141.508 328.192 142.3C328.192 143.337 327.943 144.263 327.451 145.089C326.978 145.885 326.212 146.511 325.117 146.905L323.75 147.396L325.129 147.85C325.74 148.051 326.23 148.297 326.61 148.578C327.008 148.873 327.294 149.158 327.53 149.485C327.633 149.627 327.718 149.77 327.788 149.917L325.868 150.06C325.639 149.745 325.365 149.498 325.034 149.264C324.585 148.948 324.088 148.769 323.536 148.605C322.935 148.427 322.343 148.371 321.717 148.371C320.747 148.371 319.828 148.22 319.013 147.97C318.177 147.66 317.504 147.317 316.987 146.806L316.978 146.797L316.969 146.79C316.434 146.308 315.99 145.678 315.693 144.944C315.397 144.211 315.243 143.368 315.243 142.407C315.243 141.414 315.442 140.576 315.792 139.783C316.139 139.05 316.63 138.423 317.262 137.943L317.27 137.937L317.277 137.931C317.879 137.435 318.579 137.04 319.378 136.794L319.378 136.794L319.387 136.791C320.155 136.538 320.967 136.389 321.772 136.389C322.047 136.389 322.331 136.39 322.609 136.435L323.583 136.596C323.859 136.641 324.147 136.735 324.399 136.834L324.413 136.84L324.427 136.844C324.62 136.908 324.747 136.987 324.933 137.102C324.994 137.139 325.061 137.181 325.139 137.227L325.508 137.446L325.78 137.114L326.876 135.782ZM323.523 138.148L323.503 138.14L323.482 138.134C322.911 137.965 322.321 137.846 321.663 137.846C321.058 137.846 320.467 137.966 319.899 138.134C319.279 138.318 318.792 138.623 318.338 138.96C317.827 139.338 317.457 139.835 317.162 140.418L317.132 140.478L317.118 140.544C317.1 140.633 317.08 140.726 317.059 140.825C316.96 141.278 316.838 141.836 316.838 142.46C316.838 143.231 317.018 143.885 317.257 144.42C317.5 145.017 317.869 145.511 318.364 145.886C318.806 146.313 319.359 146.61 319.953 146.786C320.524 146.955 321.114 147.074 321.772 147.074C322.425 147.074 323.082 146.957 323.685 146.718C324.278 146.484 324.771 146.183 325.205 145.754C325.616 145.348 325.981 144.871 326.228 144.321C326.479 143.764 326.597 143.103 326.597 142.46C326.597 141.769 326.481 141.106 326.174 140.49C325.93 139.897 325.563 139.407 325.071 139.034C324.616 138.596 324.051 138.357 323.523 138.148Z"/><path fill="#fff" stroke="#fff" d="M333.017 138.113H331.463V136.816H334.94L335.06 138.125L335.168 139.292L335.936 138.406C336.558 137.69 337.092 137.271 337.641 137.045L337.648 137.042L337.656 137.039C338.176 136.805 338.862 136.656 339.667 136.656C341.521 136.656 342.823 137.161 343.672 138.09C344.488 139.042 344.953 140.407 344.953 142.3V147.001V147.501H345.453H347.061V148.798H341.573V147.501H342.857H343.357V147.001V142.353C343.357 141.042 343.142 139.93 342.54 139.202C341.915 138.448 340.868 138.113 339.505 138.113C338.262 138.113 337.262 138.47 336.45 139.273C335.641 140.073 335.221 141.115 335.221 142.46V146.948H335.612V147.448H335.721H336.221H337.167V148.745H331.409V147.448H333.017H333.517V146.948V138.613V138.113H333.017Z"/><path fill="#fff" stroke="#fff" d="M351.011 143.852C351.072 144.395 351.253 144.937 351.501 145.37C351.763 145.882 352.147 146.252 352.537 146.582C352.978 146.956 353.475 147.197 354.062 147.372C354.595 147.547 355.24 147.662 355.887 147.662C356.254 147.662 356.665 147.603 356.99 147.549C357.335 147.5 357.647 147.409 357.942 147.324C358.006 147.305 358.069 147.287 358.132 147.269L358.142 147.266L358.152 147.263C358.51 147.145 358.862 146.971 359.175 146.816L359.191 146.809C359.406 146.702 359.583 146.576 359.733 146.45L360.734 147.346C360.528 147.531 360.296 147.697 360.026 147.845L360.015 147.852L360.004 147.858C359.582 148.119 359.135 148.361 358.705 148.503C358.228 148.66 357.707 148.814 357.245 148.916C356.732 149.017 356.28 149.066 355.833 149.066C354.805 149.066 353.945 148.914 353.142 148.616C352.339 148.319 351.644 147.875 351.103 147.34C350.553 146.797 350.109 146.162 349.813 145.382C349.512 144.588 349.359 143.74 349.359 142.781C349.359 141.874 349.512 141.031 349.809 140.297C350.11 139.554 350.56 138.864 351.103 138.328C351.644 137.793 352.341 137.348 353.093 137.05C353.916 136.746 354.774 136.549 355.671 136.549C356.647 136.549 357.561 136.702 358.363 136.999C359.153 137.292 359.79 137.728 360.333 138.312C360.866 138.888 361.264 139.616 361.516 140.512C361.734 141.289 361.804 142.2 361.746 143.296H351.508H350.949L351.011 143.852ZM359.672 142.159H360.225L360.169 141.608C360.053 140.46 359.638 139.457 358.794 138.81C357.977 138.131 356.934 137.846 355.725 137.846C355.202 137.846 354.66 137.904 354.109 138.085C353.564 138.265 353.142 138.505 352.734 138.793C352.287 139.108 351.921 139.537 351.626 140.002C351.331 140.468 351.089 141.002 350.966 141.549L350.829 142.159H351.454H359.672Z"/><path fill="#fff" stroke="#fff" d="M366.822 138.614V138.114H366.322H364.822V136.816H368.2L368.431 137.77L368.699 138.87L369.332 137.931C369.699 137.387 370.198 137.029 370.793 136.848C371.449 136.649 372.103 136.549 372.81 136.549C373.395 136.549 373.934 136.644 374.431 136.789C374.81 136.94 375.129 137.079 375.412 137.261L374.676 138.65C374.443 138.519 374.218 138.415 373.978 138.313L373.949 138.301L373.919 138.293L373.905 138.289C373.53 138.183 373.096 138.06 372.54 138.06H372.528L372.517 138.061C371.283 138.116 370.211 138.395 369.485 139.113C368.764 139.825 368.417 140.882 368.417 142.193V147.001V147.501H368.917H370.418V148.799H364.659V147.501H366.322H366.822V147.001V138.614Z"/><path fill="#fff" stroke="#fff" stroke-miterlimit="10" d="M328.308 149.649L325.204 150.58L326.146 153.647L329.25 152.717L328.308 149.649Z"/></g><rect width="144" height="57" x="236" y="345" fill="#00C6FF" rx="24"/><path fill="#000" d="M276.56 378V367.99H278.87V378H276.56ZM279.978 378V370.832H282.26V378H279.978ZM279.978 369.838V367.99H282.26V369.838H279.978ZM286.407 378.224C285.361 378.224 284.526 378 283.901 377.552C283.285 377.095 282.958 376.469 282.921 375.676H285.077C285.161 376.385 285.599 376.74 286.393 376.74C286.738 376.74 287.009 376.679 287.205 376.558C287.41 376.427 287.513 376.25 287.513 376.026C287.513 375.951 287.503 375.886 287.485 375.83C287.466 375.774 287.433 375.723 287.387 375.676C287.34 375.629 287.293 375.587 287.247 375.55C287.209 375.513 287.149 375.48 287.065 375.452C286.981 375.415 286.906 375.387 286.841 375.368C286.785 375.349 286.696 375.331 286.575 375.312C286.463 375.284 286.374 375.265 286.309 375.256C286.243 375.237 286.141 375.219 286.001 375.2C285.861 375.172 285.758 375.153 285.693 375.144C285.394 375.097 285.142 375.051 284.937 375.004C284.731 374.948 284.503 374.864 284.251 374.752C284.008 374.64 283.807 374.514 283.649 374.374C283.499 374.225 283.373 374.029 283.271 373.786C283.168 373.534 283.117 373.245 283.117 372.918C283.117 372.19 283.411 371.625 283.999 371.224C284.587 370.823 285.324 370.622 286.211 370.622C287.209 370.622 287.984 370.827 288.535 371.238C289.085 371.639 289.389 372.199 289.445 372.918H287.345C287.27 372.358 286.887 372.078 286.197 372.078C285.898 372.078 285.655 372.134 285.469 372.246C285.291 372.358 285.203 372.521 285.203 372.736C285.203 372.792 285.212 372.843 285.231 372.89C285.249 372.937 285.277 372.979 285.315 373.016C285.361 373.053 285.403 373.086 285.441 373.114C285.487 373.142 285.548 373.17 285.623 373.198C285.697 373.226 285.763 373.249 285.819 373.268C285.884 373.287 285.968 373.305 286.071 373.324C286.183 373.343 286.271 373.361 286.337 373.38C286.411 373.389 286.509 373.408 286.631 373.436C286.752 373.455 286.85 373.469 286.925 373.478C287.242 373.534 287.503 373.585 287.709 373.632C287.914 373.679 288.152 373.763 288.423 373.884C288.703 373.996 288.922 374.131 289.081 374.29C289.239 374.439 289.375 374.649 289.487 374.92C289.608 375.181 289.669 375.489 289.669 375.844C289.669 376.609 289.365 377.197 288.759 377.608C288.161 378.019 287.377 378.224 286.407 378.224ZM293.046 378.084C292.318 378.084 291.754 377.939 291.352 377.65C290.96 377.351 290.764 376.838 290.764 376.11V372.26H289.812V370.832H290.764V368.564H292.99V370.832H294.292V372.26H292.99V375.62C292.99 375.881 293.056 376.063 293.186 376.166C293.326 376.269 293.527 376.32 293.788 376.32C293.863 376.32 293.961 376.32 294.082 376.32C294.204 376.311 294.274 376.306 294.292 376.306V377.972C294.031 378.047 293.616 378.084 293.046 378.084ZM298.544 378.21C297.387 378.21 296.458 377.855 295.758 377.146C295.067 376.427 294.722 375.513 294.722 374.402C294.722 373.319 295.063 372.419 295.744 371.7C296.435 370.981 297.321 370.622 298.404 370.622C299.384 370.622 300.201 370.921 300.854 371.518C301.713 372.302 302.133 373.464 302.114 375.004H296.962C297.037 375.499 297.209 375.886 297.48 376.166C297.751 376.437 298.115 376.572 298.572 376.572C299.16 376.572 299.557 376.334 299.762 375.858H301.988C301.82 376.549 301.419 377.113 300.784 377.552C300.159 377.991 299.412 378.21 298.544 378.21ZM296.976 373.646H299.804C299.767 373.217 299.622 372.876 299.37 372.624C299.127 372.372 298.819 372.246 298.446 372.246C297.634 372.246 297.144 372.713 296.976 373.646ZM302.878 378V370.832H305.076V371.812H305.118C305.669 371.019 306.406 370.622 307.33 370.622C308.105 370.622 308.711 370.874 309.15 371.378C309.598 371.873 309.822 372.526 309.822 373.338V378H307.54V373.8C307.54 373.408 307.442 373.1 307.246 372.876C307.059 372.643 306.784 372.526 306.42 372.526C306.047 372.526 305.743 372.666 305.51 372.946C305.277 373.226 305.16 373.59 305.16 374.038V378H302.878ZM313.036 378V370.832H315.234V371.812H315.276C315.827 371.019 316.564 370.622 317.488 370.622C318.263 370.622 318.87 370.874 319.308 371.378C319.756 371.873 319.98 372.526 319.98 373.338V378H317.698V373.8C317.698 373.408 317.6 373.1 317.404 372.876C317.218 372.643 316.942 372.526 316.578 372.526C316.205 372.526 315.902 372.666 315.668 372.946C315.435 373.226 315.318 373.59 315.318 374.038V378H313.036ZM323.401 376.012C323.662 376.404 324.035 376.6 324.521 376.6C325.006 376.6 325.379 376.404 325.641 376.012C325.911 375.62 326.047 375.093 326.047 374.43C326.047 373.767 325.911 373.24 325.641 372.848C325.379 372.447 325.006 372.246 324.521 372.246C324.035 372.246 323.662 372.442 323.401 372.834C323.139 373.226 323.009 373.758 323.009 374.43C323.009 375.093 323.139 375.62 323.401 376.012ZM327.293 377.146C326.593 377.865 325.673 378.224 324.535 378.224C323.396 378.224 322.472 377.865 321.763 377.146C321.053 376.427 320.699 375.522 320.699 374.43C320.699 373.338 321.053 372.433 321.763 371.714C322.472 370.995 323.396 370.636 324.535 370.636C325.673 370.636 326.593 370.995 327.293 371.714C328.002 372.433 328.357 373.338 328.357 374.43C328.357 375.522 328.002 376.427 327.293 377.146ZM330.479 378L328.281 370.832H330.605L331.389 373.8L331.711 375.186H331.739C331.851 374.635 331.958 374.159 332.061 373.758L332.817 370.832H334.749L335.533 373.758L335.869 375.2H335.897C336.018 374.649 336.13 374.183 336.233 373.8L337.031 370.832H339.285L337.087 378H334.945L334.105 374.752L333.797 373.464H333.769C333.657 373.949 333.549 374.379 333.447 374.752L332.593 378H330.479Z"/></g></g><defs><filter id="filter0_d" width="615" height="615" x="0" y="0" color-interpolation-filters="sRGB" filterUnits="userSpaceOnUse"><feFlood flood-opacity="0" result="BackgroundImageFix"/><feColorMatrix in="SourceAlpha" type="matrix" values="0 0 0 0 0 0 0 0 0 0 0 0 0 0 0 0 0 0 127 0"/><feOffset dy="68"/><feGaussianBlur stdDeviation="54"/><feColorMatrix type="matrix" values="0 0 0 0 0.729412 0 0 0 0 0.231373 0 0 0 0 0.988235 0 0 0 0.25 0"/><feBlend in2="BackgroundImageFix" mode="normal" result="effect1_dropShadow"/><feBlend in="SourceGraphic" in2="effect1_dropShadow" mode="normal" result="shape"/></filter><clipPath id="clip0"><rect width="399" height="399" x="108" y="40" fill="#fff" rx="56"/></clipPath><clipPath id="clip1"><rect width="119" height="46" fill="#fff" transform="translate(257 108)"/></clipPath></defs></svg>